<?xml version="1.0" encoding="UTF-8"?>
<svg id="Layer_1" xmlns="http://www.w3.org/2000/svg" version="1.1" xmlns:xlink="http://www.w3.org/1999/xlink" viewBox="0 0 500 500">
  <!-- Generator: Adobe Illustrator 30.1.0, SVG Export Plug-In . SVG Version: 2.1.1 Build 136)  -->
  <defs>
    <style>
      .st0 {
        fill: url(#linear-gradient1);
      }

      .st1 {
        fill: none;
      }

      .st2 {
        fill: url(#linear-gradient);
      }
    </style>
    <clipPath id="clippath">
      <path class="st1" d="M139.22,125.38c0,3.88.46,7.66,1.33,11.28,1.99,8.35,6.15,15.85,11.85,21.88,2.82,2.98,6,5.61,9.49,7.79,4.45,2.8,9.4,4.89,14.67,6.12,11.6,9.44,20.62,21.77,25.89,35.85,2.08,5.57,3.58,11.42,4.41,17.47.51,3.67.77,7.42.77,11.23s-.29,7.89-.85,11.72c-7.03-1.44-14.32-2.19-21.79-2.19-5.71,0-11.31.44-16.78,1.29.8-3.48,1.22-7.1,1.22-10.82s-.46-7.65-1.32-11.27c-1.99-8.35-6.16-15.86-11.86-21.89-3.22-3.41-6.92-6.34-10.99-8.71-4.06-2.34-8.48-4.11-13.17-5.2-11.6-9.44-20.62-21.77-25.89-35.85-2.08-5.57-3.58-11.41-4.4-17.46-.52-3.68-.78-7.43-.78-11.24,0-46.41,38.83-84.17,86.55-84.17,18.24,0,35.19,5.52,49.16,14.93-8.5,8.87-15.39,19.19-20.2,30.54-8.07-6.05-18.09-9.63-28.96-9.63-26.7,0-48.35,21.64-48.35,48.33Z"/>
    </clipPath>
    <linearGradient id="linear-gradient" x1="202.05" y1="122.16" x2="400.83" y2="122.16" gradientUnits="userSpaceOnUse">
      <stop offset=".31" stop-color="#00aeef"/>
      <stop offset="1" stop-color="#2e3192"/>
    </linearGradient>
    <linearGradient id="linear-gradient1" x1="265.13" y1="233.86" x2="465.47" y2="233.86" gradientUnits="userSpaceOnUse">
      <stop offset=".7" stop-color="#00aeef"/>
      <stop offset=".97" stop-color="#2e3192"/>
    </linearGradient>
    <clipPath id="clippath-1">
      <path class="st1" d="M400.83,348.62c0,46.41-38.83,84.18-86.55,84.18-18.93,0-36.46-5.94-50.72-16.01,8.41-9.03,15.16-19.5,19.83-30.99,8.38,6.96,19.15,11.15,30.89,11.15,26.7,0,48.34-21.64,48.34-48.33,0-3.76-.43-7.42-1.24-10.94-1.86-8.02-5.72-15.27-11.02-21.21h0c-3.38-3.8-7.35-7.06-11.77-9.63-4.79-2.8-10.11-4.79-15.77-5.8h-.01c-11.21-9.3-19.96-21.34-25.14-35.03-2.11-5.56-3.63-11.39-4.48-17.43-.54-3.79-.82-7.65-.82-11.58s.28-7.79.82-11.57c6.82,1.35,13.87,2.05,21.09,2.05,5.97,0,11.83-.48,17.54-1.42-.81,3.52-1.24,7.18-1.24,10.94s.43,7.43,1.25,10.95c1.85,8.02,5.71,15.28,11.02,21.22h.01c3.4,3.83,7.42,7.11,11.89,9.69,4.76,2.76,10.03,4.72,15.64,5.72h0c11.21,9.32,19.95,21.34,25.13,35.04,2.11,5.56,3.63,11.39,4.48,17.43.54,3.78.82,7.64.82,11.57Z"/>
    </clipPath>
    <clipPath id="clippath-2">
      <path class="st1" d="M235.71,280.46c-8.41,9.02-15.17,19.5-19.83,30.98-4.25-3.53-9.11-6.35-14.41-8.27-5.14-1.86-10.69-2.88-16.48-2.88-2.6,0-5.15.2-7.63.6-5.78.92-11.22,2.86-16.13,5.63-4.78,2.7-9.06,6.19-12.65,10.3-8.64,2.83-17.89,4.36-27.5,4.36-5.92,0-11.7-.58-17.29-1.69h-.01c-6.31-1.25-12.38-3.17-18.11-5.69-30.12-13.18-51.14-42.65-51.14-76.8s22.07-65.06,53.38-77.74c4.24,11.65,10.62,22.33,18.68,31.62-19.62,6.15-33.85,24.47-33.85,46.12s13.28,38.72,31.87,45.45c5.14,1.86,10.69,2.88,16.47,2.88,2.6,0,5.15-.2,7.63-.6,5.95-.94,11.53-2.97,16.55-5.86,4.61-2.67,8.73-6.08,12.22-10.06,8.65-2.83,17.9-4.36,27.51-4.36,5.92,0,11.7.58,17.29,1.69,6.32,1.25,12.38,3.17,18.12,5.69,5.42,2.36,10.55,5.27,15.31,8.63Z"/>
    </clipPath>
    <clipPath id="clippath-3">
      <path class="st1" d="M298.36,302.97c-5.51,1.92-10.57,4.81-14.97,8.47-6.06,5.04-10.88,11.54-13.9,18.95-2.3,5.62-3.56,11.78-3.56,18.23s1.26,12.61,3.56,18.23c-3.24,14.24-10.21,27.14-19.85,37.67-4.17,4.56-8.84,8.68-13.93,12.27-14.26,10.07-31.79,16.01-50.72,16.01-47.72,0-86.55-37.77-86.55-84.18,0-3.97.28-7.88.84-11.71,7.04,1.44,14.33,2.19,21.8,2.19,5.71,0,11.31-.44,16.78-1.29-.8,3.48-1.22,7.09-1.22,10.81,0,26.69,21.65,48.33,48.35,48.33,11.74,0,22.51-4.19,30.89-11.15,6.06-5.04,10.88-11.54,13.9-18.95,2.3-5.62,3.56-11.78,3.56-18.23s-1.26-12.61-3.56-18.23c3.24-14.24,10.21-27.14,19.86-37.67,4.16-4.56,8.83-8.67,13.92-12.26,4.94-3.49,10.28-6.49,15.94-8.91,4.32,11.59,10.76,22.2,18.86,31.42Z"/>
    </clipPath>
  </defs>
  <path class="st1" d="M298.59,134.39c0,7.56-1.03,14.89-2.97,21.86-3.34-6.56-5.22-13.99-5.22-21.86s1.88-15.3,5.22-21.86c1.94,6.97,2.97,14.3,2.97,21.86Z"/>
  <path class="st1" d="M379.22,204.15c4.76-2.76,10.02-4.72,15.63-5.72-4.2,3.49-8.75,6.6-13.59,9.26-4.42,2.43-9.08,4.5-13.94,6.15,3.41-3.83,7.43-7.11,11.9-9.69Z"/>
  <path class="st2" d="M400.83,125.38c0,3.93-.28,7.79-.82,11.58-6.82-1.35-13.87-2.05-21.09-2.05-5.98,0-11.84.48-17.55,1.42.82-3.52,1.25-7.18,1.25-10.95,0-26.69-21.64-48.33-48.34-48.33-10.86,0-20.89,3.58-28.96,9.62-5.92,4.44-10.79,10.2-14.17,16.85-3.34,6.56-5.22,13.99-5.22,21.86s1.88,15.3,5.22,21.86c-3.71,13.43-10.76,25.53-20.22,35.42-4.27,4.47-9.04,8.48-14.21,11.96-4.97,3.36-10.33,6.21-15.98,8.5-4.24-11.65-10.63-22.34-18.69-31.62,5.28-1.65,10.16-4.18,14.48-7.42,5.92-4.44,10.79-10.2,14.16-16.85h0c3.34-6.57,5.22-13.98,5.22-21.85s-1.88-15.28-5.22-21.84h0c3.71-13.44,10.77-25.55,20.24-35.44,4.26-4.47,9.02-8.48,14.19-11.96,13.97-9.41,30.92-14.93,49.16-14.93,47.72,0,86.55,37.76,86.55,84.17Z"/>
  <path class="st0" d="M465.47,237.41c0,34.38-21.31,64.03-51.77,77.07-4.32-11.59-10.76-22.21-18.87-31.42,18.89-6.58,32.44-24.53,32.44-45.65s-13.55-39.07-32.43-45.65c-4.98-1.74-10.34-2.68-15.92-2.68-2.91,0-5.76.26-8.53.75h-.01c-5.61,1-10.87,2.96-15.63,5.72-4.47,2.58-8.49,5.86-11.9,9.69-8.95,3.06-18.56,4.72-28.57,4.72-5.68,0-11.23-.53-16.61-1.56-6.33-1.2-12.42-3.07-18.17-5.54-5.06-2.17-9.87-4.79-14.37-7.83,8.49-8.87,15.37-19.19,20.19-30.53,3.93,2.94,8.32,5.3,13.05,6.94,4.98,1.74,10.34,2.68,15.91,2.68,2.91,0,5.75-.26,8.52-.74h.01c5.66-1.02,10.99-3.01,15.78-5.81,4.41-2.57,8.38-5.82,11.75-9.61h.01c8.95-3.06,18.56-4.72,28.57-4.72,5.68,0,11.23.53,16.61,1.56,6.33,1.2,12.42,3.07,18.17,5.54,30.46,13.05,51.77,42.69,51.77,77.07Z"/>
  <path class="st1" d="M254.25,339.4c2.3,5.62,3.56,11.78,3.56,18.23s-1.26,12.61-3.56,18.23c-1.34-5.87-2.05-11.97-2.05-18.23s.71-12.36,2.05-18.23Z"/>
  <path class="st1" d="M367.33,278.18c4.86,1.65,9.51,3.72,13.93,6.15,4.84,2.67,9.4,5.77,13.6,9.26-5.61-1-10.88-2.96-15.64-5.72-4.47-2.58-8.49-5.86-11.89-9.69Z"/>
</svg>