<?xml version="1.0" encoding="UTF-8"?>
<svg id="Layer_1" xmlns="http://www.w3.org/2000/svg" version="1.1" xmlns:xlink="http://www.w3.org/1999/xlink" viewBox="0 0 500 500">
  <!-- Generator: Adobe Illustrator 30.1.0, SVG Export Plug-In . SVG Version: 2.1.1 Build 136)  -->
  <defs>
    <style>
      .st0, .st1, .st2 {
        fill: none;
      }

      .st0, .st3 {
        stroke-width: 2px;
      }

      .st0, .st3, .st2 {
        stroke: #231f20;
        stroke-miterlimit: 10;
      }

      .st4 {
        fill: url(#linear-gradient2);
      }

      .st5, .st3 {
        fill: #231f20;
      }

      .st6 {
        fill: url(#linear-gradient1);
      }

      .st7 {
        fill: #1c75bc;
      }

      .st8 {
        fill: url(#linear-gradient4);
      }

      .st9 {
        fill: url(#linear-gradient3);
      }

      .st2 {
        stroke-width: .75px;
      }

      .st10 {
        fill: url(#Fading_Sky);
      }

      .st11 {
        fill: url(#linear-gradient);
      }

      .st12 {
        fill: #00aeef;
      }
    </style>
    <linearGradient id="linear-gradient" x1="113.19" y1="242.53" x2="335.08" y2="247.37" gradientUnits="userSpaceOnUse">
      <stop offset="0" stop-color="#00aeef"/>
      <stop offset=".9" stop-color="#2b3990"/>
    </linearGradient>
    <linearGradient id="linear-gradient1" x1="170.21" y1="217.37" x2="294.01" y2="217.37" gradientUnits="userSpaceOnUse">
      <stop offset=".17" stop-color="#27aae1"/>
      <stop offset="1" stop-color="#231f20"/>
    </linearGradient>
    <linearGradient id="linear-gradient2" x1="192.84" y1="304.12" x2="193.34" y2="304.12" gradientUnits="userSpaceOnUse">
      <stop offset="1" stop-color="#00aeef"/>
      <stop offset="1" stop-color="#231f20"/>
    </linearGradient>
    <linearGradient id="linear-gradient3" x1="165.19" y1="274.95" x2="304.8" y2="274.95" gradientUnits="userSpaceOnUse">
      <stop offset=".48" stop-color="#1c75bc"/>
      <stop offset="1" stop-color="#231f20"/>
    </linearGradient>
    <linearGradient id="Fading_Sky" data-name="Fading Sky" x1="203.36" y1="242.55" x2="330.27" y2="242.55" gradientUnits="userSpaceOnUse">
      <stop offset="0" stop-color="#2484c6"/>
      <stop offset="1" stop-color="#2484c6" stop-opacity="0"/>
    </linearGradient>
    <linearGradient id="linear-gradient4" x1="368.05" y1="135.71" x2="367.3" y2="138.68" gradientUnits="userSpaceOnUse">
      <stop offset="0" stop-color="#231f20"/>
      <stop offset="1" stop-color="#1c75bc"/>
    </linearGradient>
  </defs>
  <circle class="st0" cx="118.3" cy="205.96" r=".7"/>
  <path class="st1" d="M330.59,248.99c0,2.42-.11,4.82-.32,7.19v-14.37c.06.69.12,1.39.16,2.09.11,1.68.16,3.38.16,5.09Z"/>
  <path class="st1" d="M341.85,204.04l-.39-.67-4.59-7.95-6.6-11.43-2.73-4.73-.52-.9-2.28-3.95c1.43,1.56,2.79,3.18,4.08,4.85.5.64.98,1.28,1.45,1.93,3.23,4.42,6.01,9.19,8.28,14.23,1.26,2.79,2.37,5.66,3.3,8.62Z"/>
  <path class="st1" d="M330.27,274.16v1.36c-.05.07-.1.14-.15.21,0-.12.02-.24.04-.36.04-.4.08-.8.11-1.21Z"/>
  <path class="st1" d="M330.27,274.16v-14.1h-.44c.1-.69.18-1.38.26-2.08.07-.6.13-1.2.18-1.8v3.61c.01.08.02.16.02.24v.03c.2,2.28.3,4.58.3,6.91s-.11,4.82-.32,7.19Z"/>
  <path class="st1" d="M330.59,248.99c0,2.42-.11,4.82-.32,7.19v-14.37c.06.69.12,1.39.16,2.09.11,1.68.16,3.38.16,5.09Z"/>
  <path class="st1" d="M168.35,220.17c.03.13.08.23.16.3.23.19.62.09.9,0"/>
  <path class="st0" d="M345.61,240.59"/>
  <path class="st3" d="M343.32,211.08c-.14-.49-.21-.75-.18-.75.02,0,.08.2.18.75Z"/>
  <path class="st1" d="M341.46,203.37l-4.59-7.95-6.6-11.43-2.73-4.73-.52-.9c.25.29.5.6.74.9.86,1.07,1.7,2.17,2.51,3.29,2.87,3.97,5.46,8.28,7.71,12.87,1.27,2.56,2.43,5.22,3.48,7.95Z"/>
  <path class="st2" d="M343.32,211.08c-.14-.49-.21-.75-.18-.75.02,0,.08.2.18.75Z"/>
  <g>
    <path class="st11" d="M345.6,227.74c0-.69-.02-1.38-.04-2.07v-.02c-1.3-8.92-1.93-12.9-2.22-14.46.27.94.76,2.62,1.33,4.9-.23-1.52-.5-3.02-.82-4.51-.38-1.81-.83-3.6-1.34-5.36-.33-.96-.68-1.91-1.05-2.85l-4.59-7.95-6.6-11.43-2.73-4.73-.52-.9-2.28-3.95c-3.79-4.17-8.01-7.94-12.6-11.23-.04-.03-.07-.05-.11-.08-5.52-3.95-11.57-7.22-18.02-9.68-5.75-2.2-11.82-3.75-18.13-4.57-.18-.02-.36-.05-.55-.07h-.05c-1.54-.09-4.48-.32-7.49-.58-.79-.02-1.58-.03-2.37-.03-2.59,0-5.15.12-7.67.36v-1.59h-65.83l-6.69,11.58-2.64,4.58-9.33,16.16-6.16,10.67-3.17,5.49-9.33,16.16-5.62,9.73-3.71,6.43-9.33,16.16,9.33,16.16,3.71,6.42,5.62,9.74,9.33,16.16,3.17,5.49,6.16,10.67,9.33,16.16,2.64,4.57,6.69,11.59,1.25,2.16h31.73c-1.15-.38-2.29-.79-3.41-1.23v-.93h-2.3c-5.64-2.38-10.94-5.39-15.83-8.94-3.03-2.2-5.91-4.61-8.6-7.22h1.97c-2.1-1.33-4.14-2.76-6.1-4.28h-.01c-1.92-2.15-3.72-4.39-5.39-6.72v2.15c-2.48-2.28-4.82-4.72-6.99-7.31-4.14-4.92-7.7-10.34-10.57-16.16-.2-.39-.39-.78-.57-1.18-2.26-4.75-4.05-9.76-5.34-14.98-1.28-5.2-2.06-10.61-2.26-16.16-.05-1.03-.07-2.07-.07-3.12,0-4.44.36-8.8,1.06-13.04.91-5.61,2.41-11.01,4.42-16.16.67-1.71,1.4-3.4,2.19-5.05.4-.85.81-1.69,1.25-2.52h0c.45-.89.91-1.75,1.4-2.6.15-.28.31-.56.48-.84.51-.88,1.04-1.76,1.59-2.62.54-.86,1.1-1.7,1.67-2.53,3.4-4.95,7.34-9.49,11.74-13.55.97-.9,1.96-1.77,2.97-2.61,2.08-1.75,4.25-3.39,6.51-4.91h0c.94-.64,1.9-1.26,2.88-1.86,1.85-1.63,3.78-3.16,5.77-4.61,2.38-1.72,4.85-3.32,7.42-4.78,3.42-1.95,7-3.65,10.71-5.09,5.45-2.11,11.19-3.64,17.16-4.5.32-.06.64-.11.97-.15,3.52-.48,7.12-.72,10.78-.72,2.48,0,4.93.11,7.35.33,6.28.57,12.35,1.87,18.13,3.8,4.95,1.66,9.68,3.78,14.14,6.33,1.36.77,2.69,1.58,3.99,2.43,5.95,3.85,11.35,8.48,16.06,13.73.71.79,1.4,1.59,2.07,2.4,3.52,4.24,6.61,8.85,9.2,13.76,2.7,5.09,4.85,10.5,6.4,16.16,1.25,4.54,2.1,9.24,2.53,14.07.06.69.12,1.39.16,2.09.11,1.68.16,3.38.16,5.09,0,2.42-.11,4.82-.32,7.19v3.61c.01.08.02.16.02.24v.03c.2,2.28.3,4.58.3,6.91s-.11,4.82-.32,7.19v1.36c3.48-4.78,6.45-9.96,8.82-15.46,2.21-5.13,3.91-10.54,5.01-16.16.57-2.88.98-5.82,1.22-8.81.2-2.22.29-4.47.29-6.74,0-.2,0-.41-.01-.61ZM343.14,210.33s.08.2.18.75c-.14-.49-.21-.75-.18-.75Z"/>
    <path class="st5" d="M267.79,148.2c3.01.26,5.95.49,7.49.58-2.46-.31-4.96-.5-7.49-.58Z"/>
    <path class="st6" d="M294.01,198.03v1.65c-2.38-1.56-4.84-2.98-7.39-4.26-3.44-1.76-7.03-3.26-10.74-4.51-5.78-1.93-11.85-3.23-18.13-3.8-2.42-.22-4.87-.33-7.35-.33-3.66,0-7.26.24-10.78.72-6.31.85-12.38,2.43-18.13,4.66-2.5.96-4.94,2.05-7.31,3.26-3.79,1.91-7.41,4.13-10.82,6.61-3.93,2.85-7.59,6.04-10.93,9.55-2.42,2.52-4.66,5.19-6.73,8.01-.16.22-.32.43-.47.65-1.73,2.4-3.33,4.91-4.78,7.5-2.86,5.07-5.17,10.48-6.87,16.16-1.36,4.53-2.33,9.24-2.87,14.08-.33-2.95-.5-5.95-.5-8.99,0-1.71.05-3.41.16-5.09.35-5.56,1.26-10.97,2.69-16.16,1.55-5.66,3.7-11.07,6.4-16.16,1.71-3.25,3.64-6.36,5.77-9.32,1.71-2.38,3.54-4.66,5.5-6.84,1.01-1.13,2.05-2.22,3.13-3.28,1.21-1.21,2.45-2.37,3.73-3.49,1.87-1.16,3.8-2.24,5.77-3.24,5.14-2.61,10.6-4.69,16.3-6.15h1.83v-.45c5.83-1.34,11.9-2.05,18.13-2.05s12.3.71,18.13,2.05v.45h1.83s.02,0,.02,0c1.73.45,3.43.95,5.1,1.5.34.11.68.23,1.02.35.94.32,1.88.66,2.8,1.02.3.11.59.23.88.35.95.37,1.9.77,2.83,1.19.48.22.97.44,1.45.67.75.34,1.48.7,2.2,1.07,5.44,2.76,10.52,6.12,15.16,10.01,1.01.84,2,1.71,2.97,2.61Z"/>
    <path class="st1" d="M203.36,184.04v1.37c-1.97,1-3.9,2.08-5.77,3.24,1.85-1.63,3.78-3.16,5.77-4.61Z"/>
    <path class="st1" d="M221.49,178.81v.45h-1.83c.61-.15,1.22-.3,1.83-.45Z"/>
    <path class="st1" d="M259.58,179.26h-1.83v-.45c.61.15,1.22.3,1.83.45Z"/>
    <path class="st1" d="M276.49,325.71c-.34.12-.67.23-1.01.35v-.35h1.01Z"/>
    <path class="st1" d="M293.61,316.86v.44c-.54.35-1.08.7-1.63,1.03.55-.48,1.09-.96,1.63-1.47Z"/>
    <path class="st1" d="M319.81,256.94c0,1.05-.02,2.09-.07,3.12-.2,5.55-.98,10.96-2.26,16.16-1.29,5.22-3.08,10.23-5.34,14.98-.18.4-.37.79-.57,1.18-.4.82-.81,1.62-1.25,2.42-5.05,3.42-10.52,6.28-16.31,8.49-5.75,2.2-11.82,3.75-18.13,4.58v.67h-18.13v-.36c-6.28-.6-12.35-1.92-18.13-3.88-6.45-2.19-12.54-5.18-18.13-8.86-1.49-.97-2.94-1.99-4.35-3.06-5.1-3.85-9.73-8.3-13.78-13.24-.78-.96-1.54-1.93-2.28-2.92-3.71-4.97-6.85-10.39-9.33-16.16-2.22-5.13-3.91-10.54-5.01-16.16-.99-5.03-1.51-10.23-1.51-15.55v-8.11c.15-.22.31-.43.47-.65,2.07-2.82,4.31-5.49,6.73-8.01,3.34-3.51,7-6.7,10.93-9.55,3.41-2.48,7.03-4.7,10.82-6.61,2.37-1.21,4.81-2.3,7.31-3.26,5.75-2.23,11.82-3.81,18.13-4.66,3.52-.48,7.12-.72,10.78-.72,2.48,0,4.93.11,7.35.33,6.28.57,12.35,1.87,18.13,3.8,3.71,1.25,7.3,2.75,10.74,4.51,2.55,1.28,5.01,2.7,7.39,4.26v-1.65c1.88,1.73,3.67,3.55,5.36,5.45l.02.02h.01s.02.03.02.03c2.28,2.54,4.39,5.23,6.33,8.05,2.42,3.51,4.56,7.22,6.39,11.11.79,1.65,1.52,3.34,2.19,5.05,2.01,5.15,3.51,10.55,4.42,16.16.7,4.24,1.06,8.6,1.06,13.04Z"/>
    <path class="st1" d="M197.59,188.65c-1.28,1.12-2.52,2.28-3.73,3.49.27-.55.56-1.09.85-1.63h0c.94-.64,1.9-1.26,2.88-1.86Z"/>
    <path class="st1" d="M203.36,184.04v1.37c-1.97,1-3.9,2.08-5.77,3.24,1.85-1.63,3.78-3.16,5.77-4.61Z"/>
    <path class="st1" d="M221.49,178.81v.45h-1.83c.61-.15,1.22-.3,1.83-.45Z"/>
    <path class="st1" d="M259.58,179.26h-1.83v-.45c.61.15,1.22.3,1.83.45Z"/>
    <path class="st1" d="M319.81,256.94c0,1.05-.02,2.09-.07,3.12-.2,5.55-.98,10.96-2.26,16.16-1.29,5.22-3.08,10.23-5.34,14.98-.18.4-.37.79-.57,1.18-.4.82-.81,1.62-1.25,2.42-5.05,3.42-10.52,6.28-16.31,8.49-5.75,2.2-11.82,3.75-18.13,4.58-3.42.44-6.91.67-10.46.67-2.59,0-5.15-.12-7.67-.36-6.28-.6-12.35-1.92-18.13-3.88-6.45-2.19-12.54-5.18-18.13-8.86-1.49-.97-2.94-1.99-4.35-3.06-5.1-3.85-9.73-8.3-13.78-13.24-.78-.96-1.54-1.93-2.28-2.92-3.71-4.97-6.85-10.39-9.33-16.16-2.22-5.13-3.91-10.54-5.01-16.16-.99-5.03-1.51-10.23-1.51-15.55,0-.2,0-.41.01-.61,0-2.75.17-5.47.46-8.15,2.07-2.82,4.31-5.49,6.73-8.01,3.34-3.51,7-6.7,10.93-9.55,3.41-2.48,7.03-4.7,10.82-6.61,2.37-1.21,4.81-2.3,7.31-3.26,5.75-2.23,11.82-3.81,18.13-4.66,3.52-.48,7.12-.72,10.78-.72,2.48,0,4.93.11,7.35.33,6.28.57,12.35,1.87,18.13,3.8,3.71,1.25,7.3,2.75,10.74,4.51,2.55,1.28,5.01,2.7,7.39,4.26v-1.65c1.88,1.73,3.67,3.55,5.36,5.45l.02.02h.01s.02.03.02.03c2.28,2.54,4.39,5.23,6.33,8.05,2.42,3.51,4.56,7.22,6.39,11.11.79,1.65,1.52,3.34,2.19,5.05,2.01,5.15,3.51,10.55,4.42,16.16.7,4.24,1.06,8.6,1.06,13.04Z"/>
    <path class="st1" d="M221.49,178.81v.45h-1.83c.61-.15,1.22-.3,1.83-.45Z"/>
    <path class="st1" d="M259.58,179.26h-1.83v-.45c.61.15,1.22.3,1.83.45Z"/>
    <path class="st1" d="M185.23,313.7v2.15c1.73,1.61,3.53,3.13,5.39,4.56-1.92-2.14-3.72-4.38-5.39-6.71ZM170.71,257.98c-.08.69-.15,1.38-.2,2.08h.46c-.1-.69-.18-1.38-.26-2.08ZM275.88,324.7v.35c.34-.12.67-.23,1.01-.35h-1.01ZM318.75,243.9c-.91-5.61-2.41-11.01-4.42-16.16-.67-1.71-1.4-3.4-2.19-5.05-1.83-3.89-3.97-7.6-6.39-11.11-1.94-2.82-4.05-5.51-6.33-8.05l-.03-.03s-.01-.01-.02-.02c-1.69-1.9-3.48-3.72-5.36-5.45v1.65c-2.38-1.56-4.84-2.98-7.39-4.26-3.44-1.76-7.03-3.26-10.74-4.51-5.78-1.93-11.85-3.23-18.13-3.8-2.42-.22-4.87-.33-7.35-.33-3.66,0-7.26.24-10.78.72-6.31.85-12.38,2.43-18.13,4.66-.22.09-.44.17-.66.26-.08.03-.17.07-.25.1-.45.18-.89.36-1.33.54-.49.21-.98.42-1.46.64-.61.27-1.22.55-1.82.84-.6.28-1.2.58-1.79.88-3.79,1.91-7.41,4.13-10.82,6.61-3.93,2.85-7.59,6.04-10.93,9.55-2.42,2.52-4.66,5.19-6.73,8.01-.16.22-.32.43-.47.65v8.11c0,5.32.52,10.52,1.51,15.55,1.1,5.62,2.79,11.03,5.01,16.16,2.48,5.77,5.62,11.19,9.33,16.16.74.99,1.5,1.96,2.28,2.92,4.05,4.94,8.68,9.39,13.78,13.24,1.41,1.07,2.86,2.09,4.35,3.06,1.17.77,2.37,1.52,3.59,2.22.56.33,1.13.65,1.7.96.09.06.18.11.27.15.25.14.5.28.75.41.18.1.35.19.53.28.48.26.96.5,1.45.74.07.04.13.07.2.1.36.18.72.35,1.09.52.16.09.33.17.5.24.19.1.39.19.58.27.12.06.25.12.37.17.1.05.19.09.29.13.61.27,1.22.54,1.83.79.16.07.33.14.49.2.64.26,1.28.52,1.93.76.1.04.2.08.3.11.75.28,1.5.55,2.26.81,5.78,1.96,11.85,3.28,18.13,3.88v.36h18.13v-.67c6.31-.83,12.38-2.38,18.13-4.58,5.79-2.21,11.26-5.07,16.31-8.49.44-.8.85-1.6,1.25-2.42.2-.39.39-.78.57-1.18,2.26-4.75,4.05-9.76,5.34-14.98,1.28-5.2,2.06-10.61,2.26-16.16.05-1.03.07-2.07.07-3.12,0-4.44-.36-8.8-1.06-13.04ZM194.71,190.5h0c-.29.55-.58,1.09-.85,1.64,1.21-1.21,2.45-2.37,3.73-3.49-.98.6-1.94,1.22-2.88,1.85Z"/>
    <path class="st12" d="M194.71,190.51c-.29.54-.58,1.08-.85,1.63-1.08,1.06-2.12,2.15-3.13,3.28-1.96,2.18-3.79,4.46-5.5,6.84-2.13,2.96-4.06,6.07-5.77,9.32-2.7,5.09-4.85,10.5-6.4,16.16-1.43,5.19-2.34,10.6-2.69,16.16-.11,1.68-.16,3.38-.16,5.09,0,3.04.17,6.04.5,8.99-.08.69-.15,1.38-.2,2.08-.2,2.28-.3,4.58-.3,6.91,0,3.13.18,6.22.53,9.25.64,5.58,1.85,10.99,3.58,16.16,1.9,5.7,4.43,11.11,7.49,16.16,1.07,1.77,2.21,3.49,3.42,5.16v2.15c-2.48-2.28-4.82-4.72-6.99-7.31-4.14-4.92-7.7-10.34-10.57-16.16-.2-.39-.39-.78-.57-1.18-2.26-4.75-4.05-9.76-5.34-14.98-1.28-5.2-2.06-10.61-2.26-16.16-.05-1.03-.07-2.07-.07-3.12,0-4.44.36-8.8,1.06-13.04.91-5.61,2.41-11.01,4.42-16.16.67-1.71,1.4-3.4,2.19-5.05.4-.85.81-1.69,1.25-2.52h0c.45-.89.91-1.75,1.4-2.6.15-.28.31-.56.48-.84.51-.88,1.04-1.76,1.59-2.62.54-.86,1.1-1.7,1.67-2.53,3.4-4.95,7.34-9.49,11.74-13.55.97-.9,1.96-1.77,2.97-2.61,2.08-1.75,4.25-3.39,6.51-4.91Z"/>
    <path class="st4" d="M329.39,261.04s-.01.02-.02.03v14.1c-.03.41-.07.81-.11,1.21-.02.12-.03.24-.04.36,0,.01,0,.02-.01.02-.06.09-.12.17-.19.26-.05.07-.11.14-.16.21h.3c-.64,5.58-1.85,10.99-3.58,16.16-1.9,5.7-4.43,11.11-7.49,16.16-.98,1.6-2.01,3.17-3.09,4.7-1.19,1.68-2.45,3.32-3.76,4.9-.19.23-.38.46-.58.68-1.73,2.06-3.57,4.02-5.52,5.88-3.69,3.57-7.71,6.77-12.03,9.57-3.91,2.54-8.06,4.75-12.4,6.59-1.87.79-3.77,1.51-5.71,2.16h-.02c-5.78,1.94-11.85,3.24-18.13,3.81-2.42.22-4.87.33-7.35.33-3.66,0-7.26-.24-10.78-.72-5.07-.68-9.99-1.84-14.72-3.42-1.15-.38-2.29-.79-3.41-1.23v-.93h-2.3c-5.64-2.38-10.94-5.39-15.83-8.94-3.03-2.2-5.91-4.61-8.6-7.22h1.97c2.14,1.36,4.35,2.62,6.63,3.77,5.69,2.9,11.76,5.13,18.13,6.61,5.83,1.34,11.9,2.05,18.13,2.05s12.3-.71,18.13-2.05c.7-.16,1.38-.33,2.07-.51.17-.05.35-.09.52-.14.58-.15,1.16-.32,1.73-.49.2-.05.4-.11.6-.17.63-.19,1.25-.38,1.87-.59.13-.04.27-.09.41-.14.52-.16,1.03-.34,1.54-.53.1-.03.19-.06.28-.1.46-.16.91-.33,1.37-.51.48-.18.96-.37,1.44-.56.48-.19.96-.39,1.43-.6.21-.09.43-.19.65-.28.42-.18.83-.36,1.24-.56.61-.27,1.21-.56,1.82-.86.39-.18.78-.37,1.16-.57,2.28-1.15,4.49-2.41,6.63-3.77,3.48-2.2,6.78-4.67,9.87-7.38.55-.33,1.09-.68,1.63-1.03,3.57-2.31,6.94-4.91,10.09-7.75,2.88-2.59,5.57-5.39,8.04-8.38,2.06-2.47,3.96-5.07,5.71-7.78,1.49-2.31,2.87-4.71,4.11-7.18,1.48-2.9,2.78-5.89,3.89-8.98,1.86-5.16,3.21-10.57,3.98-16.16.13-.3.25-.59.38-.87.02-.05.04-.1.06-.14v.74c.01.08.02.16.02.24Z"/>
    <path class="st9" d="M310.02,295.04c-2.63,4.91-5.76,9.51-9.32,13.74-2.17,2.59-4.51,5.03-6.99,7.31-.54.51-1.08.99-1.63,1.47-4.84,2.99-10.03,5.47-15.49,7.38h-1.01v.35c-5.78,1.93-11.85,3.23-18.13,3.8-2.42.22-4.87.33-7.35.33-3.66,0-7.26-.24-10.78-.72-5.43-.73-10.68-2-15.71-3.76-.81-.28-1.62-.58-2.42-.89-6.5-2.51-12.58-5.84-18.13-9.87-2.32-1.68-4.54-3.48-6.66-5.4-4.27-3.84-8.11-8.14-11.47-12.82-.79-1.09-1.55-2.21-2.28-3.34-3.24-5.03-5.94-10.44-8-16.16-1.86-5.16-3.21-10.57-3.98-16.16-.1-.69-.18-1.38-.26-2.08.54-4.84,1.51-9.55,2.87-14.08,1.7-5.68,4.01-11.09,6.87-16.16,1.45-2.59,3.05-5.1,4.78-7.5v8.11c0,5.32.52,10.52,1.51,15.55,1.1,5.62,2.79,11.03,5.01,16.16,2.48,5.77,5.62,11.19,9.33,16.16.74.99,1.5,1.96,2.28,2.92,4.05,4.94,8.68,9.39,13.78,13.24,1.41,1.07,2.86,2.09,4.35,3.06,5.59,3.68,11.68,6.67,18.13,8.86,5.78,1.96,11.85,3.28,18.13,3.88v.36h18.13v-.67c6.31-.83,12.38-2.38,18.13-4.58,5.79-2.21,11.26-5.07,16.31-8.49Z"/>
    <path class="st7" d="M292.38,317.32c-3.09,2.71-6.39,5.18-9.87,7.38-2.14,1.36-4.35,2.62-6.63,3.77-5.69,2.9-11.76,5.13-18.13,6.61-5.83,1.34-11.9,2.05-18.13,2.05s-12.3-.71-18.13-2.05c-6.37-1.48-12.44-3.71-18.13-6.61-2.28-1.15-4.49-2.41-6.63-3.77-2.1-1.33-4.14-2.76-6.1-4.28h-.01c-1.92-2.15-3.72-4.39-5.39-6.72-1.21-1.67-2.35-3.39-3.42-5.16-3.06-5.05-5.59-10.46-7.49-16.16-1.73-5.17-2.94-10.58-3.58-16.16-.35-3.03-.53-6.12-.53-9.25,0-2.33.1-4.63.3-6.91h.46c.77,5.59,2.12,11,3.98,16.16,2.06,5.72,4.76,11.13,8,16.16.73,1.13,1.49,2.25,2.28,3.34,3.36,4.68,7.2,8.98,11.47,12.82,2.12,1.92,4.34,3.72,6.66,5.4,5.55,4.03,11.63,7.36,18.13,9.87.8.31,1.61.61,2.42.89,5.03,1.76,10.28,3.03,15.71,3.76,3.52.48,7.12.72,10.78.72,2.48,0,4.93-.11,7.35-.33,6.28-.57,12.35-1.87,18.13-3.8.34-.12.67-.23,1.01-.35,5.46-1.91,10.65-4.39,15.49-7.38Z"/>
    <path class="st10" d="M330.27,241.81v14.37c-.05.6-.11,1.2-.18,1.8-.08.7-.16,1.39-.26,2.08-.77,5.59-2.12,11-3.98,16.16-1.11,3.09-2.41,6.08-3.89,8.98-1.24,2.47-2.62,4.87-4.11,7.18-1.75,2.71-3.65,5.31-5.71,7.78-2.47,2.99-5.16,5.79-8.04,8.38-3.15,2.84-6.52,5.44-10.09,7.75v-.44c2.48-2.28,4.82-4.72,6.99-7.31,3.56-4.23,6.69-8.83,9.32-13.74.44-.8.85-1.6,1.25-2.42.2-.39.39-.78.57-1.18,2.26-4.75,4.05-9.76,5.34-14.98,1.28-5.2,2.06-10.61,2.26-16.16.05-1.03.07-2.07.07-3.12,0-4.44-.36-8.8-1.06-13.04-.91-5.61-2.41-11.01-4.42-16.16-.67-1.71-1.4-3.4-2.19-5.05-1.83-3.89-3.97-7.6-6.39-11.11-1.94-2.82-4.05-5.51-6.33-8.05l-.03-.03s-.01-.01-.02-.02c-1.69-1.9-3.48-3.72-5.36-5.45-.97-.9-1.96-1.77-2.97-2.61-4.64-3.89-9.72-7.25-15.16-10.01-.72-.37-1.45-.73-2.2-1.07-.48-.23-.97-.45-1.45-.67-.93-.42-1.88-.82-2.83-1.19-.29-.12-.58-.24-.88-.35-.92-.36-1.86-.7-2.8-1.02-.34-.12-.68-.24-1.02-.35-1.67-.55-3.37-1.05-5.1-1.5,0,0-.01.01-.02,0-.61-.15-1.22-.3-1.83-.45-5.83-1.34-11.9-2.05-18.13-2.05-.71,0-1.41.01-2.12.03-.29,0-.58.02-.87.03-.29.01-.59.03-.88.04-.14,0-.28.01-.43.02-.19.01-.39.02-.58.03h-.05c-.32.02-.64.05-.96.07-.19.01-.38.03-.56.04-.07.01-.13.01-.2.02-.17.01-.33.02-.5.04-.37.03-.74.07-1.1.11-.04,0-.09.01-.13.01-.39.04-.79.08-1.18.12-.43.06-.87.11-1.3.17-.31.04-.62.08-.93.13-.1.01-.19.03-.29.04-.49.08-.98.15-1.47.23-.8.14-1.59.29-2.38.45-.74.14-1.47.3-2.2.47-.61.15-1.22.3-1.83.45-5.7,1.46-11.16,3.54-16.3,6.15v-1.37c2.38-1.72,4.85-3.32,7.42-4.78,3.42-1.95,7-3.65,10.71-5.09,5.45-2.11,11.19-3.64,17.16-4.5.32-.06.64-.11.97-.15,3.52-.48,7.12-.72,10.78-.72,2.48,0,4.93.11,7.35.33,6.28.57,12.35,1.87,18.13,3.8,4.95,1.66,9.68,3.78,14.14,6.33,1.36.77,2.69,1.58,3.99,2.43,5.95,3.85,11.35,8.48,16.06,13.73.71.79,1.4,1.59,2.07,2.4,3.52,4.24,6.61,8.85,9.2,13.76,2.7,5.09,4.85,10.5,6.4,16.16,1.25,4.54,2.1,9.24,2.53,14.07Z"/>
    <path class="st8" d="M348.39,251.01c-.13,2.96-.41,5.98-.85,9.05-.76,5.33-2.02,10.77-3.98,16.16-.13.39-.27.78-.42,1.17-2.05,5.4-4.68,10.41-7.6,14.99-.3.48-.61.95-.92,1.42-1.4,2.12-2.86,4.15-4.35,6.07-2.45,3.16-4.97,6.06-7.44,8.67-3.25,3.44-6.4,6.39-9.15,8.79h-.01c-.53.47-1.04.91-1.53,1.32-.39.34-.76.66-1.13.96.36-.32.73-.65,1.13-1,.3-.27.61-.55.93-.83.53-.49,1.1-1,1.7-1.54l1.13-3,13.94-37.02.08-.21.24-.64.11-.3v.45c3.48-4.78,6.45-9.96,8.82-15.46,2.21-5.13,3.91-10.54,5.01-16.16.57-2.88.98-5.82,1.22-8.81l1.16-3.07c-.22-1.53-.43-2.95-.62-4.28-.1-.72-.2-1.41-.3-2.07v-.02c-1.3-8.92-1.93-12.9-2.22-14.46.27.94.76,2.62,1.33,4.9.75,2.96,1.64,6.95,2.37,11.65.61,3.91,1.12,8.32,1.34,13.06.01.04.01.09.01.13.15,3.22.17,6.6,0,10.08Z"/>
    <path class="st5" d="M310.61,320.62c-5.3,4.72-6.45,5.53-6.56,5.43-.15-.16,2.5-2.03,6.56-5.43Z"/>
    <path class="st5" d="M276.4,148.79s-.4.02-1.07-.01h-.05c-1.54-.09-4.48-.32-7.49-.58-4.69-.4-9.55-.87-9.55-.98,0-.1,4.74.12,8.72.45,4.48.38,9.44,1.02,9.44,1.12Z"/>
    <path class="st5" d="M257.93,148.26"/>
  </g>
</svg>